<?xml version="1.0" standalone="no"?>
<!DOCTYPE svg PUBLIC "-//W3C//DTD SVG 20010904//EN"
 "http://www.w3.org/TR/2001/REC-SVG-20010904/DTD/svg10.dtd">
<svg version="1.0" xmlns="http://www.w3.org/2000/svg"
 width="1300.000000pt" height="1300.000000pt" viewBox="0 0 1300.000000 1300.000000"
 preserveAspectRatio="xMidYMid meet">

<g transform="translate(0.000000,1300.000000) scale(0.100000,-0.100000)"
fill="#000000" stroke="none">
<path d="M4244 12575 c-133 -29 -271 -94 -372 -175 -127 -102 -245 -279 -293
-440 -21 -69 -23 -102 -28 -405 l-6 -330 -435 -6 c-479 -6 -479 -6 -627 -74
-190 -88 -333 -226 -426 -410 -49 -99 -75 -189 -87 -305 -14 -137 -14 -9125 0
-9237 15 -115 35 -187 81 -282 116 -244 319 -411 577 -477 l94 -24 2982 0
c3209 0 3033 -2 3172 50 207 77 374 224 476 416 86 164 91 192 97 569 l6 330
435 6 c484 6 480 6 638 80 121 56 232 141 304 232 l31 38 -44 47 -44 47 47
-44 46 -43 24 38 c64 102 98 182 125 297 17 68 18 319 18 4717 l0 4645 -26 96
c-86 309 -306 537 -612 632 l-72 22 -3010 2 c-2470 1 -3021 -1 -3071 -12z
m6001 -115 c258 -33 476 -187 585 -415 73 -152 73 -155 77 -683 l5 -474 21 19
c21 17 21 17 0 -8 l-23 -25 0 -1843 c0 -1470 3 -1841 13 -1835 9 6 9 4 0 -7
-10 -10 -13 -392 -13 -1837 0 -1456 3 -1822 13 -1816 10 6 10 4 0 -7 -10 -10
-13 -115 -13 -455 0 -467 -6 -549 -45 -666 -71 -209 -251 -389 -465 -464 -107
-37 -223 -45 -600 -42 l-345 3 -2 4080 c-1 2244 -4 4184 -6 4310 -4 219 -5
234 -31 310 -98 286 -298 485 -586 581 l-85 29 -2535 5 -2535 5 0 300 c1 328
6 371 65 502 104 230 335 401 585 432 103 12 5821 14 5920 1z m-4835 -1275
c13 -14 21 -25 18 -25 -2 0 -15 11 -28 25 -13 14 -21 25 -18 25 2 0 15 -11 28
-25z m-1600 -38 c0 -2 -10 -12 -22 -23 l-23 -19 19 23 c18 21 26 27 26 19z
m3760 0 c0 -2 -10 -12 -22 -23 l-23 -19 19 23 c18 21 26 27 26 19z m1085 -57
c354 -40 611 -291 665 -650 13 -88 14 -9138 1 -9240 -41 -316 -247 -555 -557
-642 l-79 -23 -2929 -2 c-2507 -3 -2943 -1 -3025 11 -267 41 -484 213 -587
466 -58 143 -54 -184 -51 4845 2 4394 3 4613 20 4677 10 36 38 106 62 154 l45
89 -38 40 -37 40 40 -37 40 -37 62 69 c112 123 271 209 433 235 69 10 617 13
2965 14 1874 0 2911 -3 2970 -9z m2365 -103 c0 -2 -12 -14 -27 -28 l-28 -24
24 28 c23 25 31 32 31 24z m-20 -1612 c13 -14 21 -25 18 -25 -2 0 -15 11 -28
25 -13 14 -21 25 -18 25 2 0 15 -11 28 -25z m-8950 12 c0 -2 -10 -12 -22 -23
l-23 -19 19 23 c18 21 26 27 26 19z m7350 -21 c0 -2 -8 -10 -17 -17 -16 -13
-17 -12 -4 4 13 16 21 21 21 13z m1620 -2079 c0 -2 -12 -14 -27 -28 l-28 -24
24 28 c23 25 31 32 31 24z m-1614 -79 l29 -33 -32 29 c-31 28 -38 36 -30 36 2
0 16 -15 33 -32z m24 -1511 c0 -2 -15 -16 -32 -33 l-33 -29 29 33 c28 30 36
37 36 29z m-7390 -102 c-24 -25 -46 -45 -49 -45 -3 0 15 20 39 45 24 25 46 45
49 45 3 0 -15 -20 -39 -45z m8960 20 c13 -14 21 -25 18 -25 -2 0 -15 11 -28
25 -13 14 -21 25 -18 25 2 0 15 -11 28 -25z m-1560 -2052 c0 -8 -9 0 -50 45
l-45 47 48 -45 c26 -24 47 -45 47 -47z m-7395 37 c21 -22 37 -40 34 -40 -3 0
-23 18 -44 40 -21 22 -37 40 -34 40 3 0 23 -18 44 -40z m8975 27 c0 -2 -10
-12 -22 -23 l-23 -19 19 23 c18 21 26 27 26 19z m-8980 -1621 c0 -2 -8 -10
-17 -17 -16 -13 -17 -12 -4 4 13 16 21 21 21 13z m7360 0 c0 -2 -8 -10 -17
-17 -16 -13 -17 -12 -4 4 13 16 21 21 21 13z"/>
</g>
</svg>
