<?xml version="1.0" standalone="no"?>
<!DOCTYPE svg PUBLIC "-//W3C//DTD SVG 20010904//EN"
 "http://www.w3.org/TR/2001/REC-SVG-20010904/DTD/svg10.dtd">
<svg version="1.0" xmlns="http://www.w3.org/2000/svg"
 width="740.000000pt" height="493.000000pt" viewBox="0 0 740.000000 493.000000"
 preserveAspectRatio="xMidYMid meet">

<g transform="translate(0.000000,493.000000) scale(0.100000,-0.100000)"
fill="#000000" stroke="none">
<path d="M2665 4867 c-39 -33 -47 -125 -49 -522 -1 -286 2 -357 17 -450 72
-435 176 -633 429 -821 54 -40 134 -94 178 -121 45 -27 80 -55 80 -63 0 -9 -9
-56 -20 -106 -11 -49 -20 -101 -20 -116 0 -21 -6 -28 -29 -33 -41 -9 -56 -31
-54 -81 1 -40 0 -42 -31 -48 -18 -4 -58 -22 -89 -40 l-56 -34 -7 36 c-12 74
-45 184 -68 231 -42 82 -92 141 -281 326 -210 207 -230 237 -230 348 0 59 3
71 22 85 138 103 161 133 145 181 -6 17 -6 34 -1 42 17 26 9 69 -16 94 -61 62
-255 5 -474 -139 -244 -160 -418 -394 -514 -692 -47 -145 -61 -257 -53 -419
12 -256 41 -384 130 -575 58 -126 151 -220 280 -284 91 -46 245 -96 295 -96
52 0 53 -8 16 -122 -19 -58 -37 -125 -40 -149 -11 -81 -16 -90 -75 -154 -69
-74 -87 -108 -128 -235 -66 -206 -85 -410 -49 -500 47 -114 60 -134 102 -148
46 -16 156 -11 195 8 23 11 72 66 128 142 27 38 28 86 2 138 -11 22 -20 46
-20 55 0 25 60 55 110 55 l45 0 40 -111 c28 -78 48 -118 67 -134 32 -27 109
-40 195 -33 53 5 59 8 105 59 90 100 104 159 52 226 -33 43 -32 63 1 114 19
29 32 38 66 43 79 13 188 -36 189 -85 0 -8 13 -36 29 -61 24 -37 44 -53 109
-86 44 -22 98 -43 120 -47 40 -6 40 -7 73 -92 46 -117 69 -133 194 -133 50 0
95 4 101 9 5 5 36 13 70 16 47 6 64 4 75 -8 36 -37 145 -161 151 -172 18 -30
113 -87 171 -102 34 -9 99 -16 144 -17 81 0 84 1 118 34 19 18 33 36 30 38 -2
2 10 16 27 30 58 49 74 130 38 189 -10 18 -44 48 -73 68 -110 73 -207 267
-207 413 0 49 2 53 66 119 72 75 84 96 77 134 -8 42 22 98 61 114 19 8 44 30
56 50 12 19 26 35 31 35 15 0 38 55 50 126 9 51 21 80 45 109 17 22 44 63 58
91 30 57 50 78 83 88 12 4 32 22 45 39 12 18 32 42 45 54 29 28 30 71 1 126
-12 23 -20 57 -19 75 4 70 -95 195 -189 239 -55 26 -61 45 -39 131 23 90 49
264 49 325 0 52 -5 49 122 62 125 12 209 64 374 235 178 183 276 316 368 503
75 152 64 198 -51 213 -77 9 -383 -4 -516 -22 -221 -31 -270 -56 -530 -276
-43 -37 -45 -38 -103 -30 -50 6 -59 10 -62 28 -4 31 -37 57 -71 56 l-29 -1 14
35 c15 35 7 68 -20 86 -21 14 -96 8 -151 -13 -51 -19 -58 -19 -73 -6 -34 31
-65 30 -105 -2 l-38 -29 -24 24 c-42 41 -67 32 -156 -56 -44 -44 -84 -80 -88
-80 -4 0 -11 46 -14 103 -12 186 -36 353 -61 421 -56 155 -195 336 -481 622
-191 192 -385 344 -439 344 -8 0 -27 -10 -41 -23z m234 -205 c101 -84 219
-202 374 -372 201 -221 285 -359 308 -502 13 -83 49 -492 49 -565 0 -34 5 -65
10 -68 6 -4 10 16 10 53 l0 58 78 56 c42 31 93 72 111 92 46 48 66 48 58 0 -3
-20 -14 -43 -24 -51 -17 -13 -16 -14 7 -7 27 7 101 54 137 87 20 18 43 17 43
-3 0 -5 -12 -23 -26 -40 -15 -17 -24 -33 -22 -36 3 -2 11 2 18 11 7 8 17 15
22 15 6 0 22 8 36 19 28 18 174 72 181 66 2 -2 -7 -29 -20 -59 -19 -47 -27
-56 -48 -57 -20 -1 -16 -3 14 -11 22 -5 62 -7 88 -4 42 4 47 3 37 -9 -23 -28
-4 -40 91 -56 83 -14 91 -17 69 -27 -22 -9 -23 -11 -4 -11 11 -1 25 4 31 10 6
6 22 7 37 3 23 -5 25 -9 14 -19 -7 -7 -35 -20 -63 -29 -66 -21 -79 -31 -72
-50 4 -10 18 -16 41 -16 19 0 38 -4 41 -10 3 -5 15 -10 26 -10 16 0 18 -3 9
-19 -16 -32 -12 -41 20 -41 41 0 79 -43 132 -148 40 -79 42 -88 46 -192 5
-118 -7 -226 -41 -363 -18 -75 -19 -93 -9 -132 19 -72 15 -98 -22 -147 -66
-87 -245 -186 -412 -228 -95 -24 -267 -27 -379 -5 -198 38 -393 181 -476 350
-57 118 -72 187 -72 340 0 136 10 192 60 358 21 70 30 87 42 82 9 -4 30 -9 46
-12 17 -3 -35 28 -115 68 -182 93 -301 172 -406 272 -93 88 -146 161 -185 257
-52 127 -93 357 -105 580 -6 121 11 634 22 651 6 11 103 -54 193 -129z m-464
-993 c-49 -43 -47 -61 8 -53 l42 6 -25 -21 c-14 -11 -28 -21 -32 -21 -16 0
-58 -89 -66 -141 -24 -153 21 -260 175 -421 79 -83 120 -134 151 -193 24 -44
40 -69 36 -55 -3 14 -22 54 -41 90 l-34 65 90 -95 c68 -70 101 -115 131 -175
60 -120 94 -317 59 -349 -13 -13 -98 -36 -181 -50 -73 -13 -56 -68 37 -117
l44 -23 -21 -33 c-21 -36 -18 -63 7 -63 12 0 15 -6 9 -22 -19 -61 -23 -66 -63
-73 -67 -11 -172 -68 -266 -145 l-90 -72 -80 6 c-142 11 -298 59 -411 127 -61
37 -150 128 -189 195 -75 128 -110 336 -103 611 4 149 6 164 41 268 106 320
288 540 580 700 64 35 186 83 215 84 7 1 -3 -13 -23 -30z m3238 -77 c9 -13
-76 -175 -148 -283 -48 -73 -106 -142 -194 -230 -170 -170 -211 -189 -438
-204 l-101 -7 -20 43 c-10 24 -18 45 -18 46 1 1 72 6 158 12 112 7 166 15 190
27 41 21 193 168 261 253 29 35 79 105 112 155 33 50 70 95 83 101 46 20 19
26 -95 20 -237 -11 -422 -37 -498 -69 -37 -16 -186 -135 -276 -221 -37 -34
-72 -59 -78 -56 -7 5 5 22 30 47 64 62 87 122 41 108 -42 -13 164 150 232 185
61 30 155 52 286 66 127 14 466 19 473 7z m-2374 -1095 c0 -21 -1 -21 -9 -2
-12 28 -12 37 0 30 6 -3 10 -16 9 -28z m5 -103 c3 -9 6 -24 6 -35 0 -47 63
-213 106 -276 25 -38 50 -70 56 -72 6 -2 -3 -14 -18 -27 l-29 -23 31 11 c29
11 35 9 90 -35 55 -43 162 -111 188 -120 6 -2 -5 -19 -25 -38 -56 -53 -82
-112 -87 -200 -2 -42 0 -84 6 -94 7 -13 8 2 5 52 -7 94 14 158 76 225 43 46
49 50 69 39 65 -35 364 -55 464 -32 35 8 40 7 70 -27 17 -20 40 -51 51 -70 11
-18 22 -31 24 -28 8 7 -41 87 -66 110 -25 23 -27 36 -6 36 9 0 43 11 78 25 34
14 72 23 83 20 12 -2 43 -26 68 -52 63 -63 59 -45 -5 22 l-51 54 51 25 c71 36
175 137 203 196 13 28 30 49 39 50 19 0 84 -46 119 -85 l25 -27 -32 7 c-26 5
-33 3 -33 -8 0 -9 6 -22 13 -29 26 -27 85 -104 96 -125 l11 -22 -57 21 c-32
12 -67 28 -78 37 -14 11 -16 11 -7 1 6 -8 12 -21 12 -31 0 -9 9 -28 20 -42 11
-14 20 -34 20 -45 0 -17 -6 -14 -38 19 l-39 39 5 -78 c4 -64 1 -87 -16 -125
-20 -46 -79 -127 -92 -127 -3 0 -12 22 -19 49 -7 28 -19 55 -26 61 -9 8 -8 -6
6 -50 18 -59 26 -189 12 -203 -11 -12 -33 44 -33 84 0 57 -15 55 -17 -3 -2
-51 -5 -60 -87 -211 -26 -48 -51 -108 -55 -135 l-8 -47 -13 30 c-7 17 -16 75
-19 129 -4 63 -10 101 -18 103 -7 3 -26 -27 -46 -69 -29 -64 -48 -87 -145
-177 -76 -71 -119 -120 -139 -157 -25 -48 -29 -51 -36 -31 -5 12 -5 43 -2 69
4 27 3 48 -1 48 -4 0 -21 -12 -36 -27 -22 -21 -28 -23 -28 -10 0 25 -13 21
-46 -14 -49 -51 -58 -53 -87 -13 -19 27 -23 42 -18 62 10 37 23 34 45 -11 14
-30 21 -36 32 -26 37 31 50 222 20 293 -22 53 -29 41 -11 -19 18 -57 19 -135
4 -205 -11 -54 -24 -64 -34 -27 -4 12 -15 31 -25 42 -10 11 -21 29 -24 41 -4
12 -55 66 -114 121 -120 112 -156 169 -171 268 l-9 60 0 -60 c-1 -63 11 -97
75 -200 17 -28 33 -70 36 -95 l5 -45 -41 46 c-24 25 -57 72 -74 105 -30 57
-32 58 -38 31 -4 -15 -5 -38 -3 -52 5 -23 2 -22 -43 16 -122 102 -178 230
-180 407 -1 71 15 121 58 182 l17 25 -22 -19 c-12 -11 -34 -43 -48 -72 -24
-49 -26 -61 -22 -163 1 -60 0 -107 -3 -105 -4 2 -28 35 -55 74 -26 38 -51 70
-56 70 -11 0 -10 -27 2 -70 l9 -35 -18 23 c-22 26 -37 28 -48 7 -12 -21 -73
42 -110 115 -25 48 -28 66 -28 146 0 79 4 97 28 144 17 33 21 48 12 40 -25
-21 -45 -65 -58 -132 -14 -70 -39 -94 -30 -29 7 48 -8 54 -51 20 -15 -12 -29
-20 -31 -18 -10 10 35 111 63 143 31 36 42 66 22 66 -5 0 2 11 15 25 37 36 31
45 -29 45 -30 0 -67 5 -83 11 -27 11 -27 12 34 29 52 14 74 28 139 89 102 95
131 110 220 111 57 0 73 -3 78 -16z m-514 -573 c0 -31 5 -53 15 -61 18 -15 17
-16 43 35 l21 40 1 -40 c0 -22 5 -47 10 -55 9 -13 13 -12 28 6 18 22 18 21 42
-37 12 -32 39 -77 58 -100 53 -62 131 -121 152 -114 11 4 23 -3 34 -20 19 -29
41 -33 50 -9 9 24 32 2 63 -63 15 -29 66 -95 113 -147 48 -51 90 -105 94 -119
9 -36 31 -34 53 6 8 16 16 10 64 -47 71 -87 78 -86 94 6 l6 38 40 -38 c39 -35
41 -39 34 -77 -14 -79 -10 -90 55 -173 87 -109 111 -156 117 -222 9 -92 -42
-160 -117 -160 -33 0 -37 3 -33 20 7 25 2 25 -39 0 -46 -28 -90 -26 -128 7
-31 26 -32 29 -27 89 4 55 2 65 -17 82 -11 10 -50 24 -86 31 -83 15 -181 63
-215 103 -26 31 -27 34 -23 149 3 113 -5 147 -17 71 -14 -88 -8 -82 -69 -66
-112 29 -261 114 -252 144 19 60 17 63 -13 20 -42 -62 -201 -202 -272 -240
-32 -17 -93 -39 -136 -50 -70 -18 -84 -26 -137 -78 -103 -101 -142 -188 -100
-223 29 -24 46 -67 34 -89 -6 -11 -17 -20 -26 -20 -11 0 -13 8 -9 33 5 25 2
39 -15 57 -18 21 -21 22 -14 5 27 -77 4 -115 -71 -115 l-45 0 6 54 c4 35 3 56
-5 60 -7 5 -11 -4 -11 -26 0 -82 -36 -103 -87 -52 -26 26 -26 27 -20 142 6
122 17 173 69 332 28 84 38 102 89 155 69 73 95 122 104 198 12 101 104 344
153 402 71 85 256 197 335 204 4 1 7 -21 7 -48z m1625 -731 c5 -28 -2 -55 -30
-120 -20 -47 -39 -107 -42 -135 -8 -75 21 -197 71 -300 51 -105 99 -165 173
-212 44 -28 53 -39 53 -63 0 -32 -23 -60 -48 -60 -14 0 -17 10 -17 54 0 39 -5
60 -19 75 -25 27 -33 19 -12 -11 40 -56 3 -136 -56 -124 -17 3 -37 6 -46 6
-13 0 -13 2 1 18 24 26 22 85 -4 113 -18 21 -20 21 -13 4 4 -11 8 -38 8 -60 1
-32 -4 -42 -24 -53 -23 -13 -33 -13 -85 3 -49 14 -70 27 -122 81 -34 35 -89
97 -122 139 l-60 74 6 75 c7 86 -8 140 -57 211 -17 25 -30 51 -28 57 2 6 10
-3 17 -21 15 -35 30 -36 47 -3 10 19 12 16 28 -33 24 -78 46 -75 80 11 34 89
54 116 149 199 43 39 91 85 105 103 28 37 37 32 47 -28z m-1439 -97 c26 -17
41 -33 39 -42 -3 -7 -30 -51 -60 -96 -38 -56 -59 -101 -67 -138 -12 -55 -11
-55 20 -91 42 -48 43 -82 1 -91 -37 -8 -44 -3 -29 24 12 23 -1 61 -22 61 -7 0
-6 -5 2 -15 21 -25 -2 -61 -42 -68 -55 -9 -131 4 -155 26 -30 26 -53 99 -53
164 0 49 2 54 33 69 67 35 174 114 227 168 30 31 56 56 58 56 3 0 24 -12 48
-27z"/>
<path d="M2764 4633 c3 -10 10 -130 16 -268 13 -330 40 -517 105 -723 22 -69
50 -132 75 -169 57 -86 181 -200 289 -267 131 -81 225 -120 189 -78 -19 21
-71 122 -62 122 3 0 26 -14 50 -31 25 -17 48 -28 51 -25 4 3 1 39 -5 78 -6 40
-10 74 -8 75 3 3 92 -152 100 -172 11 -31 11 17 -1 155 -24 287 -70 494 -135
608 -51 89 -145 202 -418 496 -52 56 -205 193 -233 208 -16 8 -18 7 -13 -9z"/>
<path d="M4005 2934 c4 -10 15 -39 23 -63 9 -25 18 -39 20 -32 5 16 -26 98
-40 108 -8 4 -9 0 -3 -13z"/>
<path d="M3790 2918 c-86 -44 -149 -170 -172 -343 -14 -109 -1 -155 53 -195
74 -53 195 -53 248 1 43 43 72 129 78 230 15 236 -78 372 -207 307z m114 -50
c30 -13 40 -39 31 -76 -17 -70 -68 -95 -99 -50 -21 29 -21 102 0 122 18 19 34
20 68 4z"/>
<path d="M4553 2838 c-24 -35 -22 -54 2 -22 24 31 36 54 28 54 -4 0 -18 -15
-30 -32z"/>
<path d="M4610 2768 c-64 -63 -110 -207 -111 -350 -1 -83 15 -106 78 -115 51
-7 78 8 102 55 37 74 62 293 42 369 -22 79 -57 92 -111 41z m85 -49 c9 -26
-13 -79 -31 -79 -19 0 -37 48 -29 77 7 30 51 32 60 2z"/>
<path d="M4253 2294 c-4 -11 1 -22 12 -30 24 -18 37 -18 61 1 19 15 19 15 0
30 -26 20 -65 19 -73 -1z"/>
<path d="M3960 2200 c0 -5 11 -16 23 -25 14 -8 29 -34 36 -58 31 -104 84 -157
156 -157 57 0 98 23 155 89 29 33 61 61 71 61 23 0 49 10 49 19 0 4 -16 5 -36
3 -24 -3 -52 3 -84 18 -44 21 -55 22 -122 13 -108 -15 -181 -7 -209 23 -24 25
-39 31 -39 14z m353 -91 c12 -7 24 -13 26 -15 2 -2 -9 -20 -24 -40 -40 -53
-81 -74 -143 -74 -45 0 -57 4 -79 28 -22 23 -53 80 -53 96 0 3 37 7 83 9 45 1
101 4 125 5 24 1 53 -3 65 -9z"/>
<path d="M2191 2975 c0 -5 6 -21 14 -35 8 -14 14 -20 14 -15 0 6 -6 21 -14 35
-8 14 -14 21 -14 15z"/>
<path d="M2450 2945 c0 -11 43 -85 47 -81 5 5 -35 86 -42 86 -3 0 -5 -2 -5 -5z"/>
</g>
</svg>
