<?xml version="1.0" standalone="no"?>
<!DOCTYPE svg PUBLIC "-//W3C//DTD SVG 20010904//EN"
 "http://www.w3.org/TR/2001/REC-SVG-20010904/DTD/svg10.dtd">
<svg version="1.0" xmlns="http://www.w3.org/2000/svg"
 width="758.000000pt" height="505.000000pt" viewBox="0 0 758.000000 505.000000"
 preserveAspectRatio="xMidYMid meet">

<g transform="translate(0.000000,505.000000) scale(0.100000,-0.100000)"
fill="#000000" stroke="none">
<path d="M623 4279 c-62 -65 96 -387 365 -743 296 -391 537 -590 1122 -923 91
-52 173 -102 183 -110 24 -23 21 -55 -12 -121 -85 -171 -142 -427 -156 -697
-13 -275 -51 -571 -76 -601 -20 -24 -62 -15 -124 26 -73 49 -115 59 -151 35
-23 -15 -27 -15 -43 -1 -24 22 -63 20 -95 -5 -23 -18 -35 -20 -82 -14 -53 6
-54 6 -72 -25 -32 -60 -55 -81 -108 -105 -69 -31 -86 -63 -87 -167 -1 -64 3
-83 20 -106 l20 -27 2450 -3 2450 -2 19 21 c15 16 20 40 22 104 5 113 -9 142
-91 183 -52 26 -68 41 -89 79 l-26 48 -59 -3 c-47 -3 -64 1 -85 17 -31 25 -65
27 -94 6 -19 -12 -24 -12 -40 0 -32 24 -67 17 -144 -30 -83 -49 -107 -54 -140
-27 -22 18 -24 31 -46 383 -26 410 -23 387 -71 604 -31 141 -58 226 -116 356
-22 50 -9 65 116 136 340 190 576 345 757 496 231 192 431 427 628 739 154
243 225 431 180 476 -17 17 -105 15 -253 -8 -665 -103 -1327 -507 -1861 -1135
-58 -69 -114 -125 -136 -136 -54 -28 -109 -24 -186 12 -465 216 -1001 214
-1472 -5 -107 -50 -168 -28 -276 99 -259 304 -524 544 -804 730 -289 191 -586
325 -875 395 -200 48 -439 74 -462 49z m657 -185 c395 -89 927 -486 1434
-1069 133 -152 177 -166 323 -102 230 101 567 164 828 154 258 -11 473 -65
686 -172 105 -54 176 -23 307 134 449 537 918 897 1363 1046 115 38 169 44
189 20 25 -30 -51 -426 -121 -639 -99 -296 -161 -362 -614 -653 -44 -28 -119
-78 -168 -111 -115 -79 -218 -132 -254 -132 -16 0 -38 7 -49 15 -28 22 -53 18
-66 -10 -9 -21 -4 -39 47 -142 32 -65 73 -159 91 -210 68 -189 112 -448 100
-597 -8 -110 10 -299 40 -429 16 -66 23 -112 17 -118 -5 -5 -42 -1 -92 12
-156 39 -275 15 -359 -72 -48 -51 -114 -160 -138 -227 l-19 -52 -362 0 c-208
0 -364 4 -367 9 -4 5 -2 20 3 34 7 19 19 25 56 30 74 11 198 97 181 126 -11
18 -26 13 -64 -20 -105 -93 -250 -90 -371 6 -48 38 -92 50 -153 42 -38 -5 -61
-16 -212 -96 -75 -40 -132 -41 -204 -5 -29 14 -65 42 -81 61 -20 24 -35 34
-45 30 -26 -10 -19 -28 33 -78 49 -47 137 -89 186 -89 18 0 25 -5 25 -20 0
-19 -7 -20 -257 -20 -142 0 -309 3 -370 7 l-113 6 0 30 c0 41 -52 145 -100
200 -87 98 -241 140 -380 102 -100 -27 -130 -30 -130 -12 0 9 9 31 19 49 11
18 27 61 35 95 19 74 52 391 61 588 14 310 59 479 169 640 49 72 62 105 52
131 -5 13 -13 15 -39 9 -17 -4 -57 -8 -87 -9 -72 -1 -116 22 -380 198 -509
338 -525 353 -621 576 -70 161 -137 429 -159 628 -8 79 -8 107 1 118 12 15 13
15 129 -12z m569 -2987 c6 -8 14 -31 19 -53 6 -26 13 -38 23 -35 72 20 89 6
89 -74 0 -46 3 -53 25 -63 30 -14 86 -98 78 -118 -4 -12 -65 -14 -364 -14
l-358 0 -11 41 c-21 77 4 132 80 173 32 17 50 34 50 46 0 10 9 28 19 41 l19
24 29 -27 c16 -16 34 -28 40 -28 6 0 26 18 43 40 38 48 59 50 83 9 l17 -31 45
41 c48 45 57 48 74 28z m3922 -27 c44 -41 61 -41 74 1 10 30 34 23 74 -21 38
-42 55 -48 68 -27 4 6 16 18 26 26 22 17 43 2 52 -40 5 -21 18 -35 45 -49 61
-31 90 -73 90 -131 0 -96 28 -89 -375 -89 -217 0 -356 4 -360 10 -10 16 33 87
70 116 32 24 35 31 35 78 0 29 5 57 12 64 15 15 50 16 65 1 18 -18 30 -3 36
42 5 37 19 58 39 59 3 0 26 -18 49 -40z"/>
<path d="M2711 1880 c-75 -35 -127 -85 -162 -155 -27 -55 -31 -75 -31 -140 0
-97 30 -163 108 -234 69 -63 136 -86 233 -79 114 8 207 73 261 180 74 149 15
325 -140 416 -37 22 -59 27 -135 29 -75 3 -98 0 -134 -17z m289 -79 c93 -74
63 -218 -54 -251 -78 -22 -158 30 -175 113 -15 71 31 148 101 169 38 11 91 -2
128 -31z"/>
<path d="M4600 1882 c-68 -26 -152 -113 -180 -187 -44 -119 -8 -261 87 -344
160 -142 411 -89 499 104 34 74 40 139 20 210 -31 104 -84 166 -181 211 -62
29 -175 32 -245 6z m72 -52 c45 -13 95 -68 103 -114 13 -69 -32 -141 -104
-165 -48 -16 -107 2 -148 46 -30 31 -33 40 -33 94 0 55 2 61 39 98 34 34 53
44 96 50 6 0 27 -4 47 -9z"/>
<path d="M3662 1388 c-20 -20 -13 -55 21 -99 56 -74 131 -70 181 10 52 82 34
101 -94 101 -61 0 -100 -4 -108 -12z"/>
</g>
</svg>
